<?xml version="1.0" standalone="no"?>
<!DOCTYPE svg PUBLIC "-//W3C//DTD SVG 20010904//EN"
 "http://www.w3.org/TR/2001/REC-SVG-20010904/DTD/svg10.dtd">
<svg version="1.0" xmlns="http://www.w3.org/2000/svg"
 width="35" height="35"
     viewBox="0 0 128 128"
 preserveAspectRatio="xMidYMid meet">
   <defs>
    <mask id="circleMask">
      <!-- White circle (area to show) -->
      <rect width="100%" height="100%" fill="black"/>
      <circle cx="64" cy="64" r="64" fill="white"/>
    </mask>
  </defs>
<circle cx="64" cy="64" r="64" fill="white"/>      
<g mask="url(#circleMask)" transform="translate(0,0) scale(1)">
<g transform="translate(15,110) scale(0.08,-0.08)"
fill="#000000" stroke="none">
<path d="M855 1196 c-128 -59 -144 -244 -29 -333 69 -52 198 -41 256 24 49 54
62 156 28 223 -33 64 -81 94 -159 97 -41 2 -77 -2 -96 -11z m150 -15 c119 -54
147 -192 56 -282 -72 -72 -163 -73 -242 -2 -92 83 -70 220 45 278 59 30 87 31
141 6z"/>
<path d="M930 1137 c0 -7 -10 -17 -22 -22 -35 -15 -37 -69 -4 -91 21 -13 26
-24 26 -58 l-1 -41 -24 28 c-21 23 -25 25 -25 10 0 -10 14 -31 31 -46 36 -31
39 -32 39 -12 0 8 7 15 15 15 17 0 35 30 35 59 0 11 -11 28 -25 37 -20 13 -25
24 -25 58 l1 41 25 -30 c25 -30 25 -30 22 -5 -2 14 -13 29 -25 35 -13 5 -23
15 -23 22 0 7 -4 13 -10 13 -5 0 -10 -6 -10 -13z m0 -74 l0 -37 -22 21 c-18
18 -19 24 -8 37 20 25 30 19 30 -21z m54 -78 c3 -8 -4 -24 -14 -37 l-19 -23
-1 42 c0 33 3 41 14 37 8 -3 17 -12 20 -19z"/>
<path d="M160 905 c0 -14 57 -94 99 -138 114 -123 284 -197 448 -197 39 0 53
-4 53 -14 0 -8 -7 -16 -15 -20 -8 -3 -15 -13 -15 -23 0 -13 8 -9 35 17 19 19
35 39 35 46 0 15 -81 76 -89 68 -3 -3 6 -16 22 -28 15 -12 27 -25 27 -29 0
-10 -128 2 -194 19 -151 39 -295 147 -377 282 -13 20 -29 30 -29 17z"/>
<path d="M850 445 l0 -345 -25 0 -25 0 0 165 0 165 -85 0 -85 0 0 -165 0 -165
-25 0 -25 0 0 189 c0 104 -3 196 -6 205 -5 13 -23 16 -90 16 l-84 0 0 -205 0
-205 -30 0 -30 0 0 250 0 251 -88 -3 -87 -3 -3 -248 -2 -247 -25 0 c-13 0 -27
-4 -30 -10 -4 -7 173 -10 524 -10 347 0 531 3 531 10 0 6 -28 10 -65 10 l-65
0 0 345 0 345 -90 0 -90 0 0 -345z m170 -10 l0 -335 -80 0 -80 0 0 335 0 335
80 0 80 0 0 -335z m-700 -95 l0 -240 -70 0 -70 0 0 240 0 240 70 0 70 0 0
-240z m240 -45 l0 -195 -69 0 -69 0 -4 188 c-3 103 -3 190 -1 195 2 4 35 7 74
7 l69 0 0 -195z m220 -40 l0 -155 -65 0 -65 0 0 155 0 155 65 0 65 0 0 -155z"/>
</g>
</g>
</svg>



