<?xml version="1.0" standalone="no"?>
<!DOCTYPE svg PUBLIC "-//W3C//DTD SVG 20010904//EN"
 "http://www.w3.org/TR/2001/REC-SVG-20010904/DTD/svg10.dtd">
<svg version="1.0" xmlns="http://www.w3.org/2000/svg"
 width="512.000000pt" height="512.000000pt" viewBox="0 0 512.000000 512.000000"
 preserveAspectRatio="xMidYMid meet">
   <defs>
    <mask id="circleMask">
      <!-- White circle (area to show) -->
      <rect width="100%" height="100%" fill="black"/>
      <circle cx="256" cy="256" r="256" fill="white"/>
    </mask>
  </defs>
<circle cx="256" cy="256" r="256" fill="white"/>      
<g mask="url(#circleMask)" transform="translate(0,0) scale(1)">
<g transform="translate(0.000000,512.000000) scale(0.100000,-0.100000)"
fill="#000000" stroke="none">
<path d="M2660 4750 c0 -63 2 -70 20 -70 18 0 20 7 20 70 0 63 -2 70 -20 70
-18 0 -20 -7 -20 -70z"/>
<path d="M3046 4613 c-77 -82 -52 -116 30 -41 30 27 44 48 42 61 -5 36 -26 30
-72 -20z"/>
<path d="M2244 4639 c-3 -6 15 -33 42 -60 43 -44 50 -47 63 -34 14 13 10 20
-29 60 -45 46 -63 54 -76 34z"/>
<path d="M2590 4589 c-41 -10 -92 -31 -113 -45 -21 -14 -42 -23 -45 -20 -8 9
-72 -55 -66 -66 3 -5 1 -14 -4 -21 -5 -7 -22 -43 -37 -81 -21 -54 -27 -86 -27
-140 1 -92 19 -149 76 -234 61 -91 76 -142 76 -263 0 -112 7 -133 58 -172 20
-15 46 -46 57 -69 27 -54 63 -80 114 -82 63 -1 111 43 126 116 3 15 14 29 25
33 10 3 33 19 49 35 l31 28 0 119 c0 128 9 159 68 245 57 84 73 126 79 213 5
69 2 93 -17 151 -34 101 -66 155 -101 172 -17 9 -43 28 -59 43 -15 15 -36 28
-46 27 -11 0 -47 7 -80 16 -75 19 -71 20 -164 -5z m233 -77 c104 -46 176 -156
185 -278 6 -90 -13 -148 -74 -235 -51 -73 -74 -139 -74 -216 l0 -53 -180 0
-180 0 0 55 c0 71 -28 151 -74 210 -80 106 -99 251 -46 360 79 163 274 232
443 157z m-393 5 c0 -2 -15 -16 -32 -33 l-33 -29 29 33 c28 30 36 37 36 29z
m430 -862 c0 -28 -23 -64 -49 -74 -32 -13 -226 -12 -262 1 -15 5 -31 21 -38
34 -24 54 -26 54 169 54 151 0 180 -2 180 -15z m-107 -154 c-8 -30 -40 -54
-73 -54 -33 0 -65 24 -73 54 -5 18 1 19 73 19 72 0 78 -1 73 -19z"/>
<path d="M3825 4224 c-49 -7 -108 -16 -130 -18 -29 -3 -48 -13 -70 -38 -16
-18 -61 -49 -98 -68 -87 -45 -134 -100 -178 -210 -32 -81 -33 -93 -37 -236 -3
-121 0 -165 13 -215 10 -35 21 -91 25 -124 9 -74 24 -101 71 -122 31 -13 38
-23 54 -76 22 -73 102 -195 158 -241 23 -19 67 -47 97 -63 30 -17 56 -38 58
-47 6 -27 -17 -46 -54 -46 -41 0 -169 -62 -183 -89 -6 -11 -26 -29 -45 -41
-62 -38 -175 -178 -217 -267 l-39 -83 -445 0 -445 0 -24 -49 c-14 -27 -53
-134 -87 -237 -33 -104 -65 -193 -70 -199 -6 -6 -22 4 -44 26 -34 33 -38 45
-82 242 l-46 207 28 22 c36 28 75 113 75 163 0 44 -34 123 -73 170 -24 28 -30
30 -110 33 -90 4 -173 -14 -198 -44 -10 -13 -14 -13 -28 0 -25 22 -100 44
-179 51 l-72 8 0 58 0 59 215 0 c204 0 217 1 267 24 29 13 69 40 88 60 l35 37
0 464 0 464 -40 41 c-69 71 -89 78 -280 84 -94 3 -360 6 -592 7 -416 1 -423 1
-468 -21 -49 -24 -87 -77 -100 -140 -14 -61 -9 -894 4 -898 7 -2 23 -21 37
-43 46 -73 71 -79 339 -79 l235 0 0 -58 0 -58 -94 -10 c-73 -8 -104 -16 -133
-36 l-38 -25 -40 30 c-39 28 -42 29 -145 25 -125 -4 -155 -19 -196 -101 -23
-44 -26 -59 -20 -109 5 -52 25 -103 58 -150 9 -13 3 -34 -36 -115 -26 -54 -55
-107 -65 -118 -21 -25 -55 -99 -41 -90 14 9 -54 -137 -82 -177 -35 -49 -63
-139 -47 -149 8 -5 13 -25 11 -52 -1 -42 0 -45 36 -59 20 -9 55 -21 77 -28 22
-7 51 -20 64 -28 13 -9 31 -17 40 -17 40 -4 197 -59 208 -73 7 -9 13 -26 13
-39 0 -14 7 -26 18 -29 9 -3 42 -16 72 -29 35 -15 66 -21 87 -18 29 5 34 1 61
-42 28 -45 46 -60 102 -86 14 -6 33 -15 42 -20 28 -14 117 -9 191 10 52 13 77
27 107 56 22 22 40 43 40 49 0 18 -50 74 -85 96 l-35 22 -56 -26 c-65 -30 -90
-32 -130 -11 -35 18 -53 50 -54 94 0 26 9 42 40 73 37 37 43 40 78 33 43 -8
37 -8 172 4 58 6 194 10 303 10 164 1 203 -2 229 -15 19 -10 53 -16 86 -15 38
1 53 -3 50 -12 -2 -6 -14 -47 -28 -90 l-25 -78 -245 1 -245 1 -22 -28 c-23
-29 -31 -73 -13 -73 6 0 10 -5 10 -11 0 -25 52 -76 88 -87 27 -8 283 -12 897
-12 l858 -1 34 33 c23 23 33 41 33 63 0 42 26 141 51 193 12 23 23 60 26 81
l5 40 437 1 c240 1 527 3 637 6 111 2 213 4 228 4 20 0 27 7 35 37 6 20 7 40
2 43 -4 3 -13 48 -19 100 -6 52 -18 147 -26 210 -8 63 -17 136 -20 162 -7 70
-44 192 -79 266 -70 146 -311 361 -449 399 -52 15 -58 19 -58 42 1 21 13 34
66 66 36 22 89 65 117 96 51 54 137 201 137 232 0 9 12 23 28 31 58 31 78 65
96 166 9 52 21 118 27 145 6 28 10 97 9 155 -1 211 -81 389 -200 450 -21 11
-41 24 -45 30 -3 5 -15 10 -26 10 -11 0 -32 9 -47 20 -79 59 -350 92 -527 64z
m390 -67 c58 -16 91 -32 120 -57 11 -9 38 -22 61 -28 87 -25 165 -124 200
-252 21 -79 24 -268 5 -353 l-13 -57 -51 6 c-60 7 -65 12 -119 118 -47 93 -78
207 -78 287 0 38 -4 59 -13 62 -20 7 -33 -4 -40 -35 -17 -66 -113 -131 -233
-156 -137 -29 -341 -23 -443 13 -30 10 -42 11 -49 2 -6 -7 -12 -55 -14 -107
-3 -83 -7 -100 -31 -137 -22 -35 -33 -43 -58 -43 -17 0 -39 -5 -50 -10 -26
-14 -35 10 -48 128 -18 161 12 330 74 424 28 43 87 89 137 107 34 13 43 18 93
51 31 21 78 36 155 51 67 12 337 3 395 -14z m-2268 -302 c63 -37 63 -37 63
-520 0 -481 1 -477 -63 -515 -31 -19 -54 -20 -627 -20 -573 0 -596 1 -627 20
-65 39 -64 32 -61 530 l3 450 32 32 c22 21 46 34 75 38 24 4 297 7 608 6 542
-1 566 -2 597 -21z m2365 -186 c19 -76 67 -184 117 -262 30 -46 32 -47 69 -41
48 7 72 -13 72 -61 0 -36 -36 -75 -70 -75 -24 0 -36 -18 -44 -65 -19 -103
-110 -230 -213 -295 -142 -90 -364 -94 -506 -7 -114 69 -199 195 -231 340 -5
20 -12 27 -30 27 -38 0 -76 37 -76 74 0 47 28 70 77 62 l38 -7 40 68 c36 61
40 76 44 146 3 76 4 78 26 73 207 -52 506 -19 619 69 23 18 43 30 45 28 3 -2
13 -35 23 -74z m-322 -923 c14 0 53 3 88 7 56 7 62 6 62 -10 0 -25 -155 -136
-178 -128 -10 3 -42 25 -72 48 -39 31 -56 51 -58 70 l-3 28 68 -8 c37 -4 79
-7 93 -7z m-2590 -56 l0 -60 -80 0 -80 0 0 53 c0 30 3 57 7 60 3 4 39 7 80 7
l73 0 0 -60z m2456 -62 c40 -29 74 -57 74 -61 0 -20 -86 -116 -105 -116 -12 0
-60 37 -115 88 l-94 88 32 17 c29 15 89 33 120 35 8 1 47 -23 88 -51z m427 25
c20 -8 37 -18 37 -21 0 -4 -39 -46 -87 -94 -55 -56 -95 -88 -109 -88 -14 0
-37 20 -68 59 l-46 60 77 56 c72 52 81 55 118 49 22 -3 57 -13 78 -21z m-479
-255 c13 -3 33 -1 44 3 20 8 22 5 22 -24 0 -18 -16 -185 -34 -371 l-35 -340
38 -45 c21 -25 41 -52 45 -58 6 -10 -30 -13 -163 -13 l-171 0 0 43 c0 25 33
145 85 305 81 252 84 265 71 297 -8 18 -23 38 -34 44 -13 7 -90 11 -197 11
l-175 0 21 43 c49 96 137 201 228 270 l35 25 98 -93 c55 -51 109 -95 122 -97z
m627 156 c113 -82 218 -231 263 -369 18 -57 90 -611 81 -626 -4 -5 -73 -9
-155 -9 l-150 0 -2 213 c-3 204 -4 212 -23 212 -19 0 -20 -8 -23 -212 l-2
-213 -170 0 c-94 0 -170 3 -170 6 0 3 18 29 40 56 22 28 40 60 40 72 0 11 -14
165 -30 341 -34 367 -35 376 -17 374 35 -4 55 9 149 96 57 52 107 95 112 95 4
0 30 -16 57 -36z m-3570 -3 c23 -18 24 -27 27 -150 l4 -131 -112 0 c-161 0
-200 29 -200 150 0 114 40 149 171 150 71 0 91 -4 110 -19z m229 -157 c0 -206
7 -231 74 -264 59 -28 250 -29 312 -1 66 30 74 58 74 265 l0 176 30 0 c40 0
83 -22 103 -53 13 -21 16 -68 19 -293 3 -242 1 -272 -15 -301 -33 -61 -45 -63
-367 -63 -320 0 -335 3 -365 60 -22 43 -22 547 0 590 18 36 59 59 103 60 l32
0 0 -176z m410 2 c0 -171 -1 -176 -24 -203 l-24 -28 -132 0 c-132 1 -133 1
-156 28 -23 27 -24 33 -24 203 l0 174 180 0 180 0 0 -174z m500 159 c41 -21
60 -63 60 -135 0 -122 -37 -150 -195 -150 l-105 0 0 130 c0 167 2 170 125 170
57 0 96 -5 115 -15z m2018 -80 c17 -24 32 -47 32 -50 0 -3 -29 -5 -65 -5 -59
0 -65 2 -65 21 0 25 37 79 53 79 7 -1 27 -21 45 -45z m32 -137 c0 -13 13 -165
29 -338 l30 -315 -52 -67 c-35 -47 -58 -68 -72 -68 -14 0 -39 22 -75 66 l-53
66 33 339 34 339 63 0 c59 0 63 -2 63 -22z m-3250 -125 c0 -3 -43 -101 -96
-218 l-96 -213 -45 20 c-25 11 -58 18 -75 16 -23 -4 -28 -1 -23 11 3 8 44 101
91 205 l86 191 79 -3 c43 -2 79 -6 79 -9z m90 -144 c4 -121 8 -150 25 -179 30
-49 75 -72 156 -78 l69 -5 0 -74 c0 -71 -1 -74 -27 -85 -16 -7 -43 -25 -62
-41 -24 -21 -40 -27 -55 -22 -11 4 -52 10 -91 14 -38 4 -105 18 -147 31 -74
24 -78 26 -93 67 l-17 43 93 208 c122 274 121 273 133 269 7 -2 13 -60 16
-148z m1104 -26 c20 -93 40 -178 43 -190 4 -19 1 -23 -18 -23 -13 0 -44 -9
-68 -20 -24 -11 -45 -19 -46 -18 -2 2 -21 86 -44 188 -23 102 -45 195 -48 208
-5 21 -3 22 69 22 l74 0 38 -167z m466 151 c0 -6 -155 -486 -251 -781 l-41
-123 -39 0 c-21 0 -39 3 -39 7 0 17 283 879 292 891 10 12 78 17 78 6z m1184
0 c9 -3 16 -16 16 -27 0 -11 -62 -213 -137 -449 l-138 -428 -577 0 c-318 0
-578 3 -578 7 0 5 20 69 44 143 25 74 90 276 146 448 l101 312 554 0 c304 0
560 -3 569 -6z m-1854 -144 c7 -36 26 -122 41 -192 24 -106 28 -135 19 -171
-6 -29 -6 -56 0 -78 6 -19 10 -37 10 -41 0 -10 -358 -10 -362 0 -2 4 -2 60 0
125 l3 117 52 1 c82 0 136 26 170 81 25 41 29 59 34 148 6 110 13 112 33 10z
m-340 -375 l0 -125 -30 0 c-27 0 -30 2 -24 25 4 15 1 32 -7 42 -24 28 -92 53
-146 53 l-53 0 0 65 0 65 130 0 130 0 0 -125z m651 74 c45 -32 55 -71 35 -135
-26 -83 -95 -116 -166 -79 -47 24 -70 62 -70 116 0 105 113 160 201 98z
m-1532 -7 c13 -10 30 -27 38 -38 13 -21 12 -21 -35 -16 -83 7 -141 -38 -145
-112 -2 -42 -11 -45 -32 -12 -77 117 63 260 174 178z m106 -138 c60 -20 112
-38 113 -40 2 -1 -8 -22 -22 -47 -14 -24 -26 -53 -26 -65 0 -12 -4 -22 -10
-22 -29 0 -208 65 -227 83 -45 41 -18 127 39 127 13 0 72 -16 133 -36z m626 5
c45 -16 44 -13 23 -49 -17 -27 -22 -30 -49 -23 -60 15 -105 4 -167 -39 -14
-10 -20 -9 -32 7 -24 31 -19 52 19 75 65 40 141 50 206 29z m-294 -103 c93
-101 -16 -253 -142 -197 -95 42 -103 159 -15 219 52 35 113 26 157 -22z m96
-232 c57 -66 127 -80 203 -42 39 19 47 20 69 8 37 -20 27 -40 -34 -72 -41 -21
-67 -28 -112 -28 -70 0 -112 15 -162 59 -45 40 -54 66 -31 92 24 26 30 24 67
-17z m997 -94 l0 -50 -230 0 c-245 0 -276 5 -300 49 -27 52 -31 51 260 51
l270 0 0 -50z m1269 21 c-6 -16 -19 -37 -31 -48 -19 -17 -52 -18 -604 -21
l-584 -2 0 50 0 50 614 0 615 0 -10 -29z"/>
<path d="M920 3488 c-84 -45 -143 -189 -110 -269 14 -32 55 -59 90 -59 35 0
79 29 86 55 8 32 15 31 36 -5 22 -38 57 -54 102 -46 80 15 102 121 49 226 -56
110 -157 149 -253 98z m115 -28 c17 0 82 -55 96 -81 5 -10 14 -42 19 -70 8
-42 7 -57 -5 -76 -29 -44 -95 -17 -95 39 0 37 -26 88 -45 88 -19 0 -55 -58
-55 -88 0 -39 -18 -62 -48 -62 -37 0 -52 17 -52 58 0 52 19 107 52 146 28 35
79 58 106 50 8 -2 20 -4 27 -4z"/>
<path d="M1565 3498 c-74 -40 -125 -130 -125 -221 0 -51 4 -62 29 -88 45 -45
123 -36 152 17 15 29 26 30 34 4 8 -26 55 -50 95 -50 22 0 41 10 62 31 29 29
30 33 26 97 -7 101 -59 184 -131 211 -36 14 -116 14 -142 -1z m145 -60 c42
-29 72 -86 78 -151 4 -41 1 -53 -13 -64 -42 -30 -85 -4 -85 51 0 36 -33 86
-55 86 -19 0 -45 -52 -45 -89 0 -50 -56 -81 -88 -49 -18 18 -14 97 7 143 41
90 129 122 201 73z"/>
<path d="M3723 3441 c-32 -20 -49 -53 -38 -71 10 -16 26 -12 51 15 13 14 34
25 48 25 16 0 32 -9 42 -25 18 -28 42 -33 50 -11 13 34 -46 86 -98 86 -13 0
-37 -9 -55 -19z"/>
<path d="M4133 3441 c-32 -20 -49 -53 -38 -71 11 -17 32 -11 49 15 11 17 26
25 46 25 20 0 35 -8 46 -25 18 -28 42 -33 50 -11 13 34 -46 86 -98 86 -13 0
-37 -9 -55 -19z"/>
<path d="M3810 3090 c0 -44 128 -97 208 -86 72 10 142 53 142 88 0 20 -34 26
-46 7 -12 -20 -88 -49 -129 -49 -41 0 -117 29 -129 49 -12 19 -46 13 -46 -9z"/>
<path d="M2085 4220 c-12 -20 7 -30 54 -30 46 0 80 18 64 33 -10 11 -111 8
-118 -3z"/>
<path d="M3155 4219 c-12 -18 16 -29 70 -27 37 2 50 7 50 18 0 19 -109 27
-120 9z"/>
</g>
 </g>
</svg>




