<?xml version="1.0" standalone="no"?>
<!DOCTYPE svg PUBLIC "-//W3C//DTD SVG 20010904//EN"
 "http://www.w3.org/TR/2001/REC-SVG-20010904/DTD/svg10.dtd">
<svg version="1.0" xmlns="http://www.w3.org/2000/svg"
 width="35" height="35"
     viewBox="0 0 128 128"
 preserveAspectRatio="xMidYMid meet">
   <defs>
    <mask id="circleMask">
      <!-- White circle (area to show) -->
      <rect width="100%" height="100%" fill="black"/>
      <circle cx="64" cy="64" r="64" fill="white"/>
    </mask>
  </defs>
<circle cx="64" cy="64" r="64" fill="white"/>     
<g transform="translate(0,100) scale(0.02,-0.02)"
fill="#000000" stroke="none">
<path d="M3645 4834 c-38 -8 -113 -36 -165 -62 -80 -39 -110 -61 -186 -137
-157 -156 -216 -296 -217 -515 -1 -146 14 -215 72 -335 94 -192 257 -327 468
-387 99 -28 275 -30 373 -5 247 64 457 259 530 492 30 96 38 281 16 384 -52
247 -250 459 -511 547 -101 34 -271 42 -380 18z m341 -115 c113 -34 182 -77
275 -169 136 -135 189 -260 190 -440 0 -177 -60 -321 -185 -445 -80 -79 -190
-143 -296 -170 -100 -26 -292 -17 -382 18 -238 92 -399 311 -415 565 -23 374
290 688 663 667 45 -3 113 -14 150 -26z"/>
<path d="M3769 4614 c-7 -9 -13 -34 -14 -57 0 -37 -3 -42 -45 -64 -90 -48
-130 -111 -130 -207 0 -67 23 -119 74 -163 39 -35 76 -49 159 -58 67 -8 110
-38 127 -89 20 -63 -33 -141 -103 -153 -72 -11 -115 8 -169 75 -31 38 -88 18
-88 -31 0 -29 96 -120 140 -133 33 -9 35 -12 35 -53 0 -65 45 -91 86 -50 14
14 20 31 17 55 -2 33 0 36 47 58 57 27 108 77 125 121 17 44 14 129 -6 170
-35 74 -105 115 -226 130 -69 9 -118 57 -118 115 0 70 37 115 108 131 51 11
97 -7 140 -56 55 -63 112 -60 112 6 0 37 -73 111 -133 134 -46 17 -47 19 -47
60 0 64 -56 101 -91 59z"/>
<path d="M2869 3446 c-125 -28 -234 -57 -243 -65 -28 -24 -18 -57 38 -123 l54
-63 -41 -50 c-74 -89 -240 -255 -332 -330 -340 -277 -756 -475 -1304 -620
-112 -30 -209 -60 -217 -66 -11 -9 -14 -53 -14 -215 l0 -204 25 -16 c29 -19
43 -16 285 53 406 117 710 262 1089 520 182 124 301 222 441 362 96 96 241
272 306 369 1 2 32 -15 68 -37 68 -42 103 -50 124 -29 9 9 12 83 12 273 0 241
-1 263 -18 278 -10 10 -25 17 -33 16 -8 -1 -116 -24 -240 -53z m187 -383 c-3
-3 -25 9 -51 27 -31 21 -53 30 -68 26 -13 -3 -48 -43 -86 -96 -89 -126 -235
-294 -339 -389 -298 -273 -721 -539 -1082 -678 -119 -46 -413 -135 -488 -148
l-42 -7 1 127 c1 148 -21 126 184 180 735 194 1300 523 1664 969 102 124 104
134 38 203 -17 18 -28 35 -26 38 3 2 70 19 150 37 l144 33 3 -159 c1 -87 0
-161 -2 -163z"/>
<path d="M3523 3160 c-14 -6 -23 -18 -24 -32 0 -13 -2 -630 -4 -1373 l-3
-1350 -96 -3 -96 -3 0 1061 c0 713 -3 1068 -10 1081 -10 18 -24 19 -304 19
-271 0 -294 -1 -309 -18 -16 -17 -17 -106 -17 -1080 l0 -1062 -90 0 -90 0 0
763 c0 727 -1 765 -18 780 -16 15 -53 17 -310 17 -289 0 -291 0 -306 -22 -14
-20 -16 -111 -16 -780 l0 -758 -95 0 -95 0 0 549 0 550 -22 15 c-33 24 -563
24 -596 0 l-22 -15 0 -550 0 -549 -250 0 c-236 0 -250 -1 -260 -19 -14 -28
-13 -38 10 -61 20 -20 33 -20 2054 -20 1220 0 2044 4 2059 9 31 12 40 45 19
71 -16 19 -31 20 -262 23 l-245 2 -2 1040 c-1 572 -2 1186 -3 1365 0 186 -4
331 -10 340 -8 13 -53 15 -287 17 -154 1 -288 -2 -300 -7z m507 -1425 l0
-1335 -222 2 -223 3 -2 1333 -1 1332 224 0 224 0 0 -1335z m-820 -300 l0
-1035 -225 0 -225 0 0 1035 0 1035 225 0 225 0 0 -1035z m-830 -302 l0 -733
-227 2 -228 3 -3 720 c-1 396 0 725 2 731 3 7 77 11 230 10 l226 0 0 -733z
m-837 -215 l-2 -513 -223 0 -222 0 -1 513 -1 512 225 0 226 0 -2 -512z"/>
</g>
</svg>
