<?xml version="1.0" encoding="utf-8"?>
<svg xmlns="http://www.w3.org/2000/svg" viewBox="0 0 500 500" xmlns:bx="https://boxy-svg.com">
  <defs>
    <filter id="drop-shadow-filter-0" bx:preset="drop-shadow 1 10 10 0 0.5 rgba(238,232,232,0.957)" color-interpolation-filters="sRGB" x="-50%" y="-50%" width="200%" height="200%">
      <title>Drop shadow</title>
      <feGaussianBlur in="SourceAlpha" stdDeviation="0"/>
      <feOffset dx="10" dy="10"/>
      <feComponentTransfer result="offsetblur">
        <feFuncA id="spread-ctrl" type="linear" slope="1"/>
      </feComponentTransfer>
      <feFlood flood-color="rgba(238,232,232,0.957)"/>
      <feComposite in2="offsetblur" operator="in"/>
      <feMerge>
        <feMergeNode/>
        <feMergeNode in="SourceGraphic"/>
      </feMerge>
    </filter>
  </defs>
  <g transform="matrix(0.1, 0, 0, -0.1, -7.915808, 526.688721)" fill="#000000" stroke="none">
    <path d="M2660 4750 c0 -63 2 -70 20 -70 18 0 20 7 20 70 0 63 -2 70 -20 70 -18 0 -20 -7 -20 -70z" style="opacity: 0.54; stroke: rgb(228, 232, 209); filter: url(&quot;#drop-shadow-filter-0&quot;); fill: rgb(47, 48, 47);"/>
    <path d="M3037 4612 c-33 -34 -46 -54 -41 -65 11 -31 49 -19 93 28 44 48 51 69 25 79 -25 10 -27 8 -77 -42z" style="opacity: 0.54; stroke: rgb(228, 232, 209); filter: url(&quot;#drop-shadow-filter-0&quot;); fill: rgb(47, 48, 47);"/>
    <path d="M2244 4639 c-9 -15 85 -109 102 -102 23 9 16 25 -28 70 -43 44 -61 52 -74 32z" style="opacity: 0.54; stroke: rgb(228, 232, 209); filter: url(&quot;#drop-shadow-filter-0&quot;); fill: rgb(47, 48, 47);"/>
    <path d="M2590 4589 c-41 -10 -92 -31 -113 -45 -21 -14 -42 -23 -45 -20 -7 8 -73 -55 -67 -64 3 -4 -9 -34 -25 -67 -38 -80 -52 -162 -41 -234 12 -73 30 -114 84 -193 54 -78 67 -131 67 -266 0 -92 2 -101 27 -130 14 -17 36 -36 49 -40 13 -5 25 -21 29 -39 8 -40 56 -87 95 -96 67 -15 141 31 155 96 4 18 16 34 29 39 13 4 35 23 49 40 26 30 27 37 27 139 0 130 14 183 71 263 60 85 81 147 81 238 0 118 -63 269 -123 299 -17 8 -43 27 -59 42 -15 15 -36 28 -46 27 -11 0 -47 7 -80 16 -75 19 -71 20 -164 -5z m232 -78 c143 -70 219 -240 175 -392 -9 -30 -37 -83 -62 -119 -52 -74 -75 -140 -75 -217 l0 -53 -180 0 -180 0 0 53 c0 77 -23 143 -75 217 -58 82 -79 152 -73 239 10 130 93 239 217 287 57 22 195 14 253 -15z m-392 6 c0 -2 -15 -16 -32 -33 l-33 -29 29 33 c28 30 36 37 36 29z m425 -874 c-14 -59 -25 -63 -175 -63 -150 0 -161 4 -175 63 l-7 27 182 0 182 0 -7 -27z m-105 -140 c0 -29 -31 -53 -70 -53 -37 0 -61 17 -73 53 -6 15 1 17 68 17 63 0 75 -3 75 -17z" style="opacity: 0.54; stroke: rgb(228, 232, 209); filter: url(&quot;#drop-shadow-filter-0&quot;); fill: rgb(47, 48, 47);"/>
    <path d="M 3896 4242 C 3891 4234 3820 4222 3740 4215 C 3681 4210 3649 4196 3621 4164 C 3604 4145 3586 4130 3580 4130 C 3553 4130 3470 4077 3429 4033 C 3340 3938 3306 3828 3306 3635 C 3306 3540 3311 3487 3324 3440 C 3334 3404 3343 3353 3344 3325 C 3348 3257 3371 3216 3419 3193 C 3449 3179 3460 3168 3465 3143 C 3475 3091 3536 2979 3584 2924 C 3627 2875 3744 2790 3768 2790 C 3775 2790 3780 2777 3780 2761 C 3780 2735 3776 2732 3734 2726 C 3671 2718 3607 2688 3566 2648 C 3547 2630 3510 2597 3483 2575 C 3405 2512 3338 2429 3290 2337 L 3245 2250 L 2810 2250 C 2434 2250 2371 2248 2352 2235 C 2336 2223 2312 2161 2254 1984 L 2178 1749 L 2142 1781 C 2106 1813 2104 1818 2058 2019 L 2010 2224 L 2045 2253 C 2090 2290 2108 2325 2116 2392 C 2128 2499 2073 2594 1985 2619 C 1895 2644 1780 2628 1740 2585 L 1717 2561 L 1688 2585 C 1651 2617 1601 2630 1518 2630 L 1450 2630 L 1450 2690 L 1450 2750 L 1692 2750 C 1929 2750 1934 2750 1974 2774 C 1997 2788 2025 2816 2038 2838 L 2061 2879 L 2058 3348 L 2055 3817 L 2027 3853 C 1972 3925 1975 3925 1587 3928 C 1396 3930 1242 3935 1245 3939 C 1247 3944 1233 3944 1212 3940 C 1192 3935 1073 3932 949 3932 C 734 3933 721 3932 676 3911 C 626 3886 588 3834 575 3770 C 562 3713 566 2884 578 2868 C 636 2798 659 2775 687 2764 C 711 2753 780 2750 955 2750 L 1190 2750 L 1190 2690 L 1190 2630 L 1123 2630 C 1039 2630 989 2617 952 2585 L 923 2561 L 900 2585 C 843 2646 665 2646 593 2586 C 522 2526 499 2414 541 2325 C 552 2301 568 2276 576 2269 C 584 2263 590 2254 590 2249 C 590 2235 498 2046 480 2025 C 459 1999 427 1927 440 1935 C 455 1945 385 1795 356 1757 C 342 1738 327 1709 324 1691 C 320 1674 313 1657 309 1654 C 296 1646 298 1612 312 1608 C 320 1605 324 1586 322 1557 C 320 1504 331 1495 425 1470 C 453 1463 483 1448 494 1438 C 504 1427 518 1421 526 1424 C 542 1430 632 1401 641 1387 C 645 1382 664 1376 684 1374 C 729 1371 748 1357 758 1318 C 764 1293 777 1283 835 1258 C 880 1239 915 1231 932 1234 C 954 1238 963 1233 987 1202 C 1002 1182 1014 1162 1013 1158 C 1012 1155 1017 1146 1025 1140 C 1033 1133 1040 1130 1040 1134 C 1040 1137 1068 1125 1103 1106 C 1163 1074 1167 1073 1241 1081 C 1284 1085 1328 1094 1340 1100 C 1358 1110 1361 1109 1355 1100 C 1341 1077 1432 1134 1456 1163 C 1488 1201 1487 1212 1441 1260 C 1419 1283 1402 1305 1403 1308 C 1404 1312 1391 1316 1373 1318 C 1352 1320 1325 1312 1297 1296 C 1243 1264 1200 1262 1182 1290 C 1175 1302 1165 1308 1160 1305 C 1146 1296 1120 1342 1120 1377 C 1120 1417 1169 1476 1208 1484 C 1223 1487 1255 1484 1279 1477 C 1316 1465 1329 1466 1364 1478 C 1394 1488 1472 1493 1655 1496 C 1899 1500 1946 1497 1935 1480 C 1927 1467 1951 1463 2018 1465 L 2081 1467 L 2075 1441 C 2071 1427 2063 1408 2056 1400 C 2040 1381 2018 1317 2029 1325 C 2034 1328 2036 1322 2033 1311 C 2029 1294 2015 1293 1787 1294 L 1545 1295 L 1518 1266 C 1491 1239 1480 1190 1500 1190 C 1506 1190 1510 1185 1510 1178 C 1510 1172 1521 1152 1535 1135 C 1548 1117 1557 1100 1553 1097 C 1544 1088 1550 1087 2428 1083 C 3030 1081 3269 1077 3264 1069 C 3260 1062 3265 1062 3280 1070 C 3292 1076 3312 1079 3325 1076 C 3342 1072 3358 1078 3379 1096 C 3421 1131 3434 1158 3431 1204 C 3429 1247 3453 1329 3482 1377 C 3492 1394 3502 1426 3503 1447 L 3505 1485 L 3950 1487 C 4543 1490 4820 1496 4832 1508 C 4846 1522 4855 1595 4842 1586 C 4830 1579 4824 1632 4827 1715 C 4828 1736 4825 1757 4820 1760 C 4814 1764 4808 1801 4805 1844 C 4803 1886 4796 1938 4790 1960 C 4784 1981 4779 2022 4779 2052 C 4778 2081 4769 2133 4759 2166 C 4748 2200 4740 2231 4741 2236 C 4745 2257 4739 2281 4732 2276 C 4723 2271 4688 2341 4675 2388 C 4671 2400 4665 2408 4661 2406 C 4657 2403 4632 2428 4605 2461 C 4547 2531 4492 2578 4390 2646 C 4312 2698 4278 2714 4223 2725 C 4195 2731 4190 2736 4190 2758 C 4191 2780 4200 2789 4243 2810 C 4346 2860 4487 3034 4506 3136 C 4511 3162 4520 3174 4544 3184 C 4607 3211 4630 3258 4645 3390 C 4647 3409 4655 3461 4663 3505 C 4678 3589 4676 3779 4660 3815 C 4643 3854 4630 3903 4630 3926 C 4630 3939 4624 3953 4617 3957 C 4600 3968 4550 4036 4550 4049 C 4550 4054 4525 4071 4494 4087 C 4463 4102 4435 4121 4433 4128 C 4430 4134 4417 4140 4404 4140 C 4391 4140 4358 4156 4331 4174 C 4304 4193 4274 4209 4263 4208 C 4253 4208 4223 4213 4195 4220 C 4168 4226 4118 4233 4085 4235 C 4052 4237 3997 4241 3963 4244 C 3929 4248 3899 4246 3896 4242 Z M 4143 4169 C 4231 4155 4311 4126 4335 4100 C 4345 4089 4359 4080 4367 4080 C 4395 4080 4478 4030 4510 3994 C 4550 3948 4583 3875 4600 3797 C 4615 3721 4616 3552 4600 3473 L 4588 3411 L 4536 3417 C 4507 3420 4479 3429 4471 3439 C 4464 3448 4438 3496 4413 3547 C 4366 3646 4340 3743 4340 3827 C 4340 3855 4336 3881 4331 3884 C 4313 3896 4294 3879 4280 3838 C 4250 3754 4137 3699 3947 3679 C 3838 3667 3695 3678 3615 3706 C 3590 3714 3565 3718 3560 3715 C 3554 3712 3550 3668 3550 3619 C 3550 3543 3546 3522 3525 3479 C 3497 3425 3496 3424 3428 3416 L 3382 3411 L 3369 3479 C 3351 3585 3362 3790 3390 3865 C 3433 3977 3492 4042 3580 4071 C 3599 4077 3624 4091 3635 4101 C 3707 4166 3952 4198 4143 4169 Z M 1940 3857 C 1953 3850 1975 3829 1987 3811 L 2010 3777 C 2010 3533.137 2010 3279.595 2010 3341 C 2010 2853 2010 2852 1940 2818 C 1908 2801 1857 2800 1317 2800 C 668 2800 689 2798 650 2863 C 631 2893 630 2916 630 3333 C 630 3809 630 3805 686 3849 C 712 3870 719 3870 1314 3870 C 1775 3870 1921 3867 1940 3857 Z M 4300 3705 C 4301 3667 4348 3549 4401 3454 L 4454 3358 L 4493 3364 C 4543 3372 4570 3351 4570 3304 C 4570 3267 4532 3230 4494 3230 C 4476 3230 4469 3223 4464 3203 C 4421 3005 4278 2852 4099 2811 C 4043 2798 3927 2798 3871 2811 C 3693 2852 3549 3006 3506 3203 C 3501 3224 3494 3230 3474 3230 C 3440 3230 3400 3272 3400 3308 C 3400 3351 3430 3373 3477 3366 C 3513 3360 3516 3361 3541 3402 C 3592 3484 3601 3509 3603 3580 C 3605 3650 3605 3651 3630 3644 C 3839 3592 4143 3629 4250 3719 C 4286 3749 4299 3745 4300 3705 Z M 3990 2745 C 4020 2745 4066 2749 4093 2753 C 4135 2760 4140 2759 4140 2743 C 4140 2727 4016 2629 3978 2615 C 3971 2612 3935 2633 3898 2660 C 3845 2699 3830 2716 3830 2735 C 3830 2760 3831 2761 3883 2753 C 3911 2749 3960 2745 3990 2745 Z M 1390 2690 L 1390 2630 L 1320 2630 L 1250 2630 L 1250 2690 L 1250 2750 L 1320 2750 L 1390 2750 L 1390 2690 Z M 3852 2628 C 3895 2599 3930 2572 3930 2568 C 3930 2552 3837 2450 3822 2450 C 3813 2451 3763 2491 3711 2539 L 3617 2628 L 3649 2645 C 3667 2654 3700 2665 3723 2670 C 3746 2674 3767 2678 3770 2679 C 3773 2680 3810 2656 3852 2628 Z M 4235 2665 C 4333 2639 4333 2636 4231 2537 C 4181 2487 4134 2450 4123 2450 C 4111 2450 4086 2473 4057 2510 L 4011 2569 L 4088 2624 C 4130 2654 4167 2679 4170 2680 C 4173 2680 4203 2673 4235 2665 Z M 4429 2555 C 4550 2467 4661 2306 4699 2165 C 4711 2119 4781 1568 4776 1562 C 4774 1560 4704 1556 4621 1553 L 4470 1547 L 4468 1761 C 4465 1967 4464 1975 4445 1975 C 4426 1975 4425 1967 4422 1763 L 4420 1550 L 4250 1550 C 4156 1550 4080 1552 4080 1555 C 4080 1558 4098 1583 4120 1611 C 4144 1642 4160 1672 4160 1688 C 4160 1703 4146 1859 4130 2035 C 4114 2211 4100 2364 4100 2375 C 4100 2390 4107 2395 4129 2396 C 4152 2397 4182 2419 4262 2493 C 4319 2546 4369 2590 4374 2590 C 4378 2590 4403 2574 4429 2555 Z M 3681 2495 C 3774 2405 3806 2386 3846 2396 C 3877 2404 3877 2429 3835 2011 L 3800 1667 L 3837 1621 C 3857 1596 3878 1569 3883 1563 C 3890 1553 3857 1550 3721 1550 L 3550 1550 L 3550 1591 C 3550 1614 3586 1742 3635 1896 C 3726 2177 3728 2194 3683 2230 C 3659 2248 3642 2250 3478 2250 L 3299 2250 L 3332 2311 C 3378 2394 3451 2483 3518 2536 C 3550 2560 3579 2580 3584 2580 C 3589 2580 3633 2542 3681 2495 Z M 860 2550 C 878 2532 880 2517 880 2400 L 880 2270 L 770 2270 L 660 2270 L 622 2304 C 585 2338 585 2339 585 2420 C 585 2501 585 2502 622 2536 C 659 2569 661 2570 750 2570 C 827 2570 843 2567 860 2550 Z M 1090 2388 C 1090 2182 1097 2158 1163 2127 C 1210 2105 1424 2103 1475 2124 C 1542 2152 1550 2181 1550 2388 L 1550 2570 L 1583 2570 C 1620 2570 1668 2541 1686 2508 C 1696 2491 1699 2416 1700 2217 C 1700 1833 1729 1860 1315 1860 L 1018 1860 L 979 1899 L 940 1938 L 940 2210 C 940 2443 942 2486 956 2509 C 978 2546 1017 2569 1058 2570 L 1090 2570 L 1090 2388 Z M 1498 2391 C 1494 2157 1504 2170 1320 2170 C 1136 2170 1146 2157 1142 2391 L 1139 2570 L 1320 2570 L 1501 2570 L 1498 2391 Z M 2000 2554 C 2043 2528 2060 2490 2060 2420 C 2060 2300 2021 2270 1866 2270 L 1760 2270 L 1760 2400 C 1760 2567 1762 2570 1886 2570 C 1948 2570 1980 2565 2000 2554 Z M 4014 2476 C 4034 2453 4050 2430 4050 2426 C 4050 2423 4021 2420 3985 2420 C 3926 2420 3920 2422 3920 2440 C 3920 2461 3958 2520 3971 2520 C 3975 2520 3995 2500 4014 2476 Z M 4076 2023 L 4107 1685 L 4056 1618 C 4023 1573 3998 1550 3985 1550 C 3973 1550 3945 1575 3911 1616 L 3857 1682 L 3891 2021 L 3925 2360 L 3985 2360 L 4045 2360 L 4076 2023 Z M 796 2206 C 797 2205 755 2110 702 1993 L 607 1782 L 584 1797 C 571 1805 538 1815 511 1819 L 463 1825 L 531 1975 C 569 2058 609 2146 620 2172 L 640 2220 L 718 2213 C 760 2210 796 2207 796 2206 Z M 880 2093 C 880 1955 890 1912 931 1865 C 965 1827 1036 1800 1102 1800 L 1140 1800 L 1140 1731 C 1140 1670 1138 1661 1120 1655 C 1109 1651 1079 1633 1053 1613 C 1013 1583 1004 1579 983 1589 C 970 1595 936 1600 908 1600 C 879 1600 819 1612 772 1628 C 691 1654 686 1657 669 1697 L 651 1740 L 744 1947 C 867 2220 862 2210 872 2210 C 876 2210 880 2157 880 2093 Z M 1993 2043 C 2013 1950 2033 1865 2036 1853 C 2042 1833 2039 1830 2013 1830 C 1997 1830 1967 1821 1945 1810 C 1924 1799 1906 1791 1905 1793 C 1904 1794 1884 1879 1861 1981 C 1838 2084 1816 2177 1813 2189 C 1808 2209 1811 2210 1881 2210 L 1955 2210 L 1993 2043 Z M 2454 2178 C 2443 2140 2231 1482 2199 1383 L 2168 1290 L 2129 1290 C 2092 1290 2089 1292 2095 1313 C 2140 1463 2375 2178 2382 2188 C 2388 2194 2408 2200 2427 2200 C 2458 2200 2461 2198 2454 2178 Z M 3653 2179 C 3661 2166 3631 2061 3524 1729 L 3384 1295 L 2806 1292 L 2229 1290 L 2236 1312 C 2248 1352 2480 2073 2501 2138 L 2522 2200 L 3082 2198 C 3590 2195 3644 2193 3653 2179 Z M 1815 1926 C 1854 1753 1859 1722 1849 1687 C 1839 1651 1841 1629 1856 1578 C 1861 1561 1848 1560 1681 1560 L 1500 1560 L 1500 1679 L 1500 1797 L 1565 1803 C 1640 1810 1677 1827 1713 1870 C 1748 1911 1760 1958 1761 2060 C 1761 2107 1763 2141 1766 2135 C 1768 2130 1790 2036 1815 1926 Z M 1450 1675 L 1450 1550 L 1420 1550 C 1393 1550 1391 1552 1396 1579 C 1407 1631 1339 1670 1239 1672 L 1200 1672 L 1200 1736 L 1200 1800 L 1325 1800 L 1450 1800 L 1450 1675 Z M 569 1741 C 582 1732 599 1715 606 1704 C 620 1684 618 1684 560 1688 C 503 1692 499 1691 466 1658 C 441 1633 429 1610 424 1580 L 417 1537 L 399 1561 C 313 1673 454 1822 569 1741 Z M 2091 1753 C 2107 1744 2127 1720 2136 1701 C 2151 1669 2151 1663 2136 1613 C 2117 1555 2093 1532 2038 1523 C 1997 1517 1951 1537 1921 1576 C 1881 1627 1901 1724 1958 1754 C 1995 1774 2056 1774 2091 1753 Z M 675 1604 C 735 1584 787 1566 789 1564 C 791 1563 783 1549 772 1533 C 762 1518 747 1488 741 1468 C 734 1447 727 1430 726 1430 C 708 1430 512 1504 498 1516 C 470 1542 474 1594 506 1619 C 521 1631 540 1640 549 1640 C 558 1640 614 1624 675 1604 Z M 1292 1610 C 1340 1596 1344 1588 1320 1557 C 1302 1534 1296 1533 1264 1541 C 1220 1554 1181 1546 1135 1514 C 1090 1484 1086 1484 1071 1516 C 1061 1539 1062 1546 1082 1567 C 1122 1610 1220 1630 1292 1610 Z M 970 1535 C 1014 1512 1040 1473 1040 1428 C 1040 1351 990 1300 915 1300 C 788 1300 745 1464 853 1530 C 891 1554 931 1555 970 1535 Z M 1094 1279 C 1115 1243 1179 1211 1229 1210 C 1248 1210 1283 1220 1308 1231 C 1346 1250 1355 1251 1376 1240 C 1389 1232 1400 1222 1400 1216 C 1400 1203 1346 1165 1307 1151 C 1228 1121 1102 1154 1047 1219 C 1016 1257 1014 1267 1037 1292 C 1060 1317 1073 1315 1094 1279 Z M 2100 1180 L 2100 1130 L 1870 1130 C 1619 1130 1595 1134 1572 1185 C 1565 1199 1560 1215 1560 1220 C 1560 1226 1666 1230 1830 1230 L 2100 1230 L 2100 1180 Z M 3370 1214 C 3370 1188 3351 1161 3320 1145 C 3295 1132 3210 1130 2725 1130 L 2160 1130 L 2160 1180 L 2160 1230 L 2765 1230 C 3307 1230 3370 1228 3370 1214 Z" style="opacity: 0.54; stroke: rgb(228, 232, 209); filter: url(&quot;#drop-shadow-filter-0&quot;); fill: rgb(47, 48, 47);"/>
    <path d="M946 3506 c-83 -31 -136 -111 -144 -218 -4 -64 -3 -68 26 -97 24 -25 39 -31 73 -31 35 0 47 6 75 36 19 19 34 31 34 26 0 -5 12 -21 26 -36 36 -35 91 -36 132 -1 38 32 47 69 32 139 -28 135 -147 220 -254 182z m120 -65 c46 -28 75 -82 81 -151 5 -56 4 -60 -19 -71 -38 -17 -64 2 -71 51 -7 51 -31 90 -57 90 -23 0 -50 -47 -50 -86 0 -31 -25 -64 -48 -64 -23 0 -52 30 -52 55 0 53 31 123 70 159 47 42 96 48 146 17z" style="opacity: 0.54; fill: rgb(47, 48, 47);"/>
    <path d="M1587 3510 c-105 -32 -189 -208 -143 -299 35 -66 128 -74 175 -15 l19 24 30 -30 c43 -43 100 -44 144 -3 35 33 41 76 23 148 -22 83 -59 133 -120 162 -52 24 -81 27 -128 13z m117 -70 c65 -39 108 -169 71 -210 -10 -11 -26 -20 -36 -20 -22 0 -49 37 -49 68 0 36 -28 82 -50 82 -24 0 -46 -33 -55 -85 -8 -49 -21 -65 -50 -65 -35 0 -48 24 -43 79 13 132 120 209 212 151z" style="opacity: 0.54; fill: rgb(47, 48, 47);"/>
    <path d="M3709 3431 c-16 -16 -29 -37 -29 -46 0 -28 29 -29 55 -1 31 33 59 33 90 0 15 -16 31 -24 40 -20 25 9 17 42 -16 70 -44 37 -101 36 -140 -3z" style="opacity: 0.54; fill: rgb(47, 48, 47);"/>
    <path d="M4121 3434 c-33 -28 -41 -61 -16 -70 9 -4 25 4 40 20 31 33 59 33 90 0 27 -29 55 -27 55 5 0 31 -56 71 -100 71 -27 0 -48 -8 -69 -26z" style="opacity: 0.54; fill: rgb(47, 48, 47);"/>
    <path d="M3812 3088 c7 -48 117 -94 200 -85 75 9 163 63 151 93 -8 21 -29 17 -75 -13 -34 -23 -53 -28 -103 -28 -50 0 -69 5 -103 28 -51 33 -75 35 -70 5z" style="opacity: 0.54; fill: rgb(47, 48, 47);"/>
    <path d="M2085 4220 c-12 -20 7 -30 54 -30 46 0 80 18 64 33 -10 11 -111 8 -118 -3z" style="opacity: 0.54; stroke: rgb(228, 232, 209); filter: url(&quot;#drop-shadow-filter-0&quot;); fill: rgb(47, 48, 47);"/>
    <path d="M3155 4219 c-12 -18 16 -29 70 -27 37 2 50 7 50 18 0 19 -109 27 -120 9z" style="opacity: 0.54; stroke: rgb(228, 232, 209); filter: url(&quot;#drop-shadow-filter-0&quot;); fill: rgb(47, 48, 47);"/>
  </g>
</svg>