<svg xmlns="http://www.w3.org/2000/svg" viewBox="0 0 512 512">
<path d="M 309 45 L 308 46 L 307 46 L 302 51 L 301 51 L 300 50 L 276 50 L 275 51 L 270 51 L 269 50 L 267 50 L 266 51 L 260 51 L 259 50 L 232 50 L 229 47 L 228 47 L 227 46 L 225 46 L 223 48 L 223 49 L 224 50 L 224 51 L 228 55 L 228 82 L 229 83 L 229 85 L 228 86 L 31 86 L 29 88 L 29 344 L 30 345 L 30 351 L 29 352 L 29 404 L 30 405 L 172 405 L 173 406 L 177 406 L 178 405 L 192 405 L 193 406 L 197 406 L 198 405 L 211 405 L 212 406 L 217 406 L 218 405 L 232 405 L 233 406 L 237 406 L 238 405 L 252 405 L 253 406 L 257 406 L 258 405 L 272 405 L 273 406 L 277 406 L 278 405 L 292 405 L 293 406 L 297 406 L 298 405 L 312 405 L 313 406 L 317 406 L 318 405 L 484 405 L 484 87 L 483 86 L 415 86 L 414 87 L 394 87 L 393 86 L 392 87 L 388 87 L 387 86 L 307 86 L 306 85 L 306 83 L 307 82 L 307 81 L 306 80 L 306 57 L 311 52 L 311 51 L 313 49 L 313 46 L 312 46 L 311 45 Z" fill="none" stroke="black" stroke-width="1"/>
<path d="M 266 29 L 265 30 L 265 31 L 264 32 L 264 41 L 265 42 L 265 43 L 266 44 L 269 44 L 270 43 L 270 30 L 269 29 Z" fill="none" stroke="black" stroke-width="1"/>
</svg>