<?xml version="1.0" encoding="utf-8"?>
<svg xmlns="http://www.w3.org/2000/svg" viewBox="0 0 500 500" style="opacity: 0.84;">
  <g transform="matrix(0.076677, -0.00035, -0.000341, -0.074701, -2598.708496, -1456.814575)" fill="#000000" stroke="none" style="transform-origin: 2854.422852px 1709.542969px;">
    <path d="M2306 3227 c-55 -72 -58 -116 -13 -197 l32 -59 -23 -43 c-12 -24 -22 -51 -22 -61 0 -26 28 -32 51 -11 54 49 64 125 24 189 -31 50 -31 89 0 140 23 36 23 41 8 57 -22 25 -28 23 -57 -15z" style="fill: rgb(136, 136, 136);"/>
    <path d="M2536 3227 c-48 -63 -58 -120 -30 -172 50 -91 48 -83 24 -135 -13 -27 -20 -56 -17 -64 19 -49 86 21 94 98 5 36 0 54 -21 90 -32 55 -33 90 -2 141 18 29 22 44 15 57 -14 27 -35 22 -63 -15z" style="fill: rgb(136, 136, 136);"/>
    <path d="M2751 3213 c-40 -60 -42 -120 -6 -178 28 -46 32 -91 9 -123 -20 -29 -15 -66 11 -70 14 -1 28 10 45 35 34 52 34 125 1 172 -31 43 -32 88 -3 128 25 35 27 54 10 71 -21 21 -35 13 -67 -35z" style="fill: rgb(136, 136, 136);"/>
    <path d="M3405 2850 c-125 -171 -174 -246 -170 -259 6 -19 63 -31 148 -31 20 0 37 -2 37 -4 0 -2 -11 -62 -25 -135 -26 -137 -25 -164 6 -159 22 4 379 456 379 480 0 26 -26 34 -115 37 -44 1 -81 4 -83 6 -2 2 8 65 23 140 14 76 24 144 21 151 -16 42 -48 10 -221 -226z m117 -23 c-12 -69 -13 -90 -3 -100 6 -6 46 -14 87 -17 l76 -5 -59 -75 c-32 -41 -83 -106 -113 -145 -29 -38 -51 -63 -48 -54 4 9 12 50 19 92 10 59 10 80 1 89 -6 6 -43 14 -82 17 l-70 6 102 142 c56 78 103 141 104 140 1 -1 -5 -41 -14 -90z" style="fill: rgb(136, 136, 136); fill-rule: nonzero;"/>
    <path d="M1506 3009 c-41 -32 -366 -582 -366 -619 0 -42 23 -84 55 -98 18 -9 125 -12 370 -12 l345 0 32 29 c28 25 33 36 33 73 0 38 -20 77 -168 328 -93 157 -178 293 -189 303 -27 23 -79 22 -112 -4z m92 -76 c63 -92 312 -528 312 -548 0 -14 -8 -29 -19 -35 -29 -15 -653 -14 -669 2 -7 7 -12 22 -12 35 0 18 173 319 317 551 18 30 48 28 71 -5z" style="fill: rgb(136, 136, 136);"/>
    <path d="M1542 2808 c-8 -8 -12 -51 -12 -129 0 -94 3 -119 16 -130 11 -9 20 -10 32 -2 15 9 17 27 13 129 -3 133 -16 165 -49 132z" style="fill: rgb(136, 136, 136);"/>
    <path d="M1547 2464 c-12 -13 -8 -42 8 -48 17 -6 48 21 42 38 -4 13 -40 20 -50 10z" style="fill: rgb(136, 136, 136);"/>
    <path d="M2385 2744 c-92 -23 -198 -80 -264 -143 -102 -99 -148 -232 -139 -402 3 -53 2 -92 -4 -95 -18 -11 -48 -88 -48 -125 0 -57 45 -135 95 -164 31 -19 44 -34 49 -56 9 -49 63 -153 106 -208 l40 -50 -43 -11 c-206 -53 -342 -141 -409 -265 -14 -28 -68 -185 -119 -350 -80 -257 -93 -310 -93 -370 0 -82 23 -142 77 -201 l35 -39 -190 0 c-167 0 -192 -2 -201 -17 -8 -12 -7 -21 2 -32 12 -14 55 -16 347 -16 316 0 335 -1 366 -20 32 -19 51 -20 568 -20 516 0 537 1 575 20 37 19 59 20 366 20 286 0 328 2 340 16 9 11 10 20 2 32 -9 15 -34 17 -200 17 l-190 0 42 48 c51 56 75 119 75 198 0 75 -165 624 -215 716 -18 33 -33 63 -32 65 1 1 0 2 -2 1 -2 -1 -27 18 -55 44 -63 56 -179 114 -290 143 l-83 22 34 37 c41 45 98 151 113 213 9 35 18 48 35 52 34 9 92 79 105 128 13 46 9 96 -11 143 -7 19 -13 81 -13 165 -1 117 -4 143 -25 193 -41 102 -92 154 -216 219 -164 85 -243 108 -368 107 -56 0 -129 -7 -162 -15z m255 -55 c90 -14 299 -111 354 -164 75 -72 115 -197 101 -319 -6 -63 -35 -124 -61 -133 -7 -2 -16 26 -23 72 -12 73 -14 76 -51 95 -42 21 -80 76 -109 158 -21 59 -49 63 -83 12 -34 -50 -101 -98 -166 -116 -47 -14 -82 -16 -199 -10 -115 5 -148 4 -170 -8 -52 -26 -93 -87 -118 -171 l-12 -39 -26 28 c-49 53 -45 238 8 351 83 176 324 282 555 244z m194 -405 c18 -35 44 -66 67 -81 42 -28 44 -33 54 -113 12 -91 50 -112 119 -65 44 30 51 21 44 -56 -6 -58 -40 -101 -91 -115 -28 -9 -32 -16 -47 -74 -51 -200 -198 -333 -381 -347 -134 -10 -247 32 -340 127 -61 63 -101 134 -122 220 -13 50 -18 57 -59 78 -24 13 -52 36 -61 52 -19 31 -22 101 -7 130 10 18 11 18 37 -6 32 -29 70 -41 92 -27 9 5 22 30 29 54 35 117 70 163 125 162 17 0 77 -3 132 -8 148 -12 247 15 332 90 21 19 40 34 43 35 3 0 18 -25 34 -56z m-510 -958 c48 -82 131 -126 235 -126 126 0 228 70 271 187 l21 60 52 -14 c224 -57 346 -133 406 -251 10 -21 59 -163 107 -317 78 -247 88 -289 89 -356 0 -67 -3 -81 -30 -124 -17 -27 -50 -63 -74 -80 -36 -26 -54 -31 -123 -35 l-80 -5 7 160 c4 88 9 168 11 178 4 13 16 17 55 17 35 0 51 4 55 15 11 26 -16 45 -63 45 l-44 0 8 153 c13 240 12 245 -30 284 l-37 33 -597 0 c-572 0 -599 -1 -629 -19 -50 -31 -57 -67 -45 -235 6 -80 11 -161 11 -180 l0 -35 -52 -3 c-49 -3 -53 -5 -53 -28 0 -23 4 -25 56 -28 l56 -3 7 -92 c3 -51 9 -130 12 -177 l6 -85 -85 5 c-74 4 -91 9 -128 35 -27 19 -54 50 -71 84 -48 91 -42 135 58 458 47 153 96 302 109 330 52 114 177 199 365 246 l95 24 11 -38 c7 -21 24 -59 38 -83z m87 65 c110 -35 233 -32 326 9 l43 19 -20 -38 c-55 -109 -194 -150 -308 -92 -42 22 -63 43 -86 88 -19 38 -20 49 -3 36 6 -6 28 -16 48 -22z m737 -317 c20 -14 22 -23 22 -102 0 -48 -7 -204 -15 -347 -8 -143 -15 -270 -15 -282 l0 -23 -575 0 c-541 0 -575 1 -575 18 -1 9 -11 168 -24 352 -23 331 -22 373 7 392 7 4 269 8 582 8 500 0 573 -2 593 -16z m-37 -834 c-22 -19 -41 -20 -546 -20 -505 0 -524 1 -546 20 -24 19 -22 19 546 19 568 0 570 0 546 -19z" style="fill: rgb(136, 136, 136);"/>
    <path d="M2333 2057 c-74 -33 -87 -45 -76 -73 8 -21 48 -14 126 20 58 26 71 48 45 74 -15 15 -9 16 -95 -21z" style="fill: rgb(136, 136, 136);"/>
    <path d="M2702 2078 c-27 -27 -13 -47 55 -78 77 -35 106 -36 111 -2 3 19 -7 27 -73 57 -88 41 -78 38 -93 23z" style="fill: rgb(136, 136, 136);"/>
    <path d="M2346 1934 c-41 -40 6 -101 53 -68 11 8 21 24 21 34 0 22 -25 50 -45 50 -7 0 -21 -7 -29 -16z" style="fill: rgb(136, 136, 136);"/>
    <path d="M2717 1932 c-30 -33 -15 -72 28 -72 44 0 63 60 26 80 -27 14 -35 13 -54 -8z" style="fill: rgb(136, 136, 136);"/>
    <path d="M2465 1728 c-76 -39 -113 -85 -95 -118 15 -29 30 -25 72 20 73 77 162 76 240 -2 32 -32 44 -39 57 -31 42 26 4 86 -84 132 -53 28 -136 28 -190 -1z" style="fill: rgb(136, 136, 136);"/>
    <path d="M2515 810 c-35 -14 -66 -57 -72 -97 -10 -81 74 -147 154 -120 42 14 83 66 83 106 -1 79 -93 141 -165 111z m85 -70 c11 -11 20 -29 20 -40 0 -11 -9 -29 -20 -40 -11 -11 -29 -20 -40 -20 -11 0 -29 9 -40 20 -11 11 -20 29 -20 40 0 11 9 29 20 40 11 11 29 20 40 20 11 0 29 -9 40 -20z" style="fill: rgb(136, 136, 136);"/>
    <path d="M3594 2260 c-12 -4 -31 -21 -43 -36 -21 -26 -21 -34 -21 -389 0 -350 1 -363 21 -388 31 -40 78 -49 237 -45 l142 3 0 -52 0 -53 -84 0 c-77 0 -85 -2 -91 -21 -4 -12 -3 -25 2 -30 5 -5 131 -8 294 -7 l284 3 0 25 c0 25 -2 25 -87 28 l-88 3 0 52 0 52 149 -3 c171 -3 208 6 241 60 20 32 20 46 18 385 l-3 353 -33 32 -32 33 -443 2 c-243 1 -452 -2 -463 -7z m900 -82 c14 -19 16 -66 16 -315 l0 -293 -460 0 -460 0 0 296 c0 184 4 303 10 315 10 18 26 19 445 19 l434 0 15 -22z m6 -676 c0 -30 -28 -32 -457 -32 -422 0 -433 0 -443 20 -11 20 -8 20 445 20 250 0 455 -4 455 -8z m-400 -149 l0 -53 -55 0 -55 0 0 53 0 52 55 0 55 0 0 -52z" style="fill: rgb(136, 136, 136);"/>
    <path d="M3897 2043 c-17 -16 -3 -41 50 -95 l57 -57 -63 -65 c-54 -57 -61 -68 -51 -86 6 -11 16 -20 23 -20 7 0 39 27 72 60 l59 60 62 -61 c63 -62 87 -70 101 -33 4 11 -14 36 -57 79 l-63 64 59 61 c65 68 74 93 33 98 -22 3 -37 -8 -79 -55 l-53 -59 -55 58 c-51 53 -78 68 -95 51z" style="fill: rgb(136, 136, 136);"/>
    <path d="M1416 2133 c-5 -12 21 -44 96 -121 120 -121 134 -130 156 -108 22 22 12 37 -104 149 -100 97 -135 116 -148 80z" style="fill: rgb(136, 136, 136);"/>
    <path d="M1325 1813 c-8 -23 -1 -29 187 -143 l157 -95 -135 -31 c-141 -33 -166 -44 -149 -69 15 -23 268 -195 286 -195 16 0 29 19 29 41 0 5 -46 39 -101 76 -99 66 -101 68 -73 76 16 4 81 20 144 35 170 40 170 40 -89 196 -115 69 -219 126 -229 126 -11 0 -23 -8 -27 -17z" style="fill: rgb(136, 136, 136);"/>
  </g>
</svg>